<svg width="19" height="18" viewBox="0 0 19 18" fill="none" xmlns="http://www.w3.org/2000/svg">
                <path fill-rule="evenodd" clip-rule="evenodd" d="M14.548 9.33633C14.548 6.63153 12.1675 4.43891 9.2311 4.43891L9.2311 1.17393C14.1251 1.17393 18.0925 4.82833 18.0925 9.33633C18.0925 13.8443 14.1251 17.4988 9.2311 17.4988L9.2311 14.2338C12.1675 14.2338 14.548 12.0411 14.548 9.33633Z" fill="#5981FA"/>
                <path fill-rule="evenodd" clip-rule="evenodd" d="M12.9907 5.87328C10.9143 3.9607 7.54787 3.9607 5.47151 5.87328L2.96512 3.56459C6.42572 0.376958 12.0365 0.376958 15.4971 3.56459C18.9577 6.75223 18.9577 11.9204 15.4971 15.108L12.9907 12.7994C15.067 10.8868 15.067 7.78586 12.9907 5.87328Z" fill="#5981FA"/>
                <path d="M0.14136 6.6015L4.22683 0.101621L8.2952 6.6106L0.14136 6.6015Z" fill="#5981FA"/>
                </svg>
                