<svg width="32" height="33" viewBox="0 0 32 33" fill="none" xmlns="http://www.w3.org/2000/svg">
<path d="M31.4204 16.5833C31.4204 25.2034 24.4324 32.1914 15.8123 32.1914C7.19211 32.1914 0.204102 25.2034 0.204102 16.5833C0.204102 7.96311 7.19211 0.975098 15.8123 0.975098C24.4324 0.975098 31.4204 7.96311 31.4204 16.5833Z" fill="#cddeff"/>
<path d="M22.6606 13.18C25.2824 14.6937 25.2824 18.4781 22.6606 19.9918L15.3386 24.2191C12.7168 25.7328 9.43945 23.8407 9.43945 20.8132L9.43945 12.3586C9.43945 9.33111 12.7168 7.43896 15.3386 8.95268L22.6606 13.18Z" fill="#F2F6F6"/>
<path d="M19.0998 16.5832C19.0998 18.3987 17.628 19.8704 15.8126 19.8704C13.9971 19.8704 12.5254 18.3987 12.5254 16.5832C12.5254 14.7677 13.9971 13.296 15.8126 13.296C17.628 13.296 19.0998 14.7677 19.0998 16.5832Z" fill="#cddeff"/>
</svg>
