<svg width="32" height="33" viewBox="0 0 32 33" fill="none" xmlns="http://www.w3.org/2000/svg">
<path d="M31.9438 16.418C31.9438 25.0381 24.9558 32.0261 16.3357 32.0261C7.71555 32.0261 0.727539 25.0381 0.727539 16.418C0.727539 7.79782 7.71555 0.809814 16.3357 0.809814C24.9558 0.809814 31.9438 7.79782 31.9438 16.418Z" fill="#4EAF64"/>
<path d="M23.184 13.0147C25.8059 14.5285 25.8059 18.3128 23.184 19.8265L15.862 24.0538C13.2402 25.5676 9.96288 23.6754 9.96288 20.6479L9.96288 12.1933C9.96288 9.16583 13.2402 7.27367 15.862 8.7874L23.184 13.0147Z" fill="#F2F6F6"/>
<path d="M19.6232 16.4171C19.6232 18.2325 18.1515 19.7042 16.336 19.7042C14.5205 19.7042 13.0488 18.2325 13.0488 16.4171C13.0488 14.6016 14.5205 13.1299 16.336 13.1299C18.1515 13.1299 19.6232 14.6016 19.6232 16.4171Z" fill="#4EAF64"/>
</svg>
